<?xml version="1.0" encoding="iso-8859-1"?>
<!-- Generator: Adobe Illustrator 19.0.0, SVG Export Plug-In . SVG Version: 6.00 Build 0)  -->
<svg version="1.1" id="Capa_1" xmlns="http://www.w3.org/2000/svg" xmlns:xlink="http://www.w3.org/1999/xlink" x="0px" y="0px"
	 viewBox="0 0 512.001 512.001" style="enable-background:new 0 0 512.001 512.001;" xml:space="preserve">
<g>
	<path style="fill:#C3C8D1;" d="M495.28,282.275c-3.018,0-5.885-1.779-7.127-4.736l-52.732-125.5
		c-1.653-3.934,0.196-8.463,4.131-10.116c3.934-1.657,8.463,0.195,10.117,4.13l52.732,125.5c1.653,3.934-0.196,8.463-4.131,10.116
		C497.293,282.081,496.278,282.275,495.28,282.275z"/>
	<path style="fill:#C3C8D1;" d="M378.429,282.275c-0.998,0-2.012-0.194-2.99-0.606c-3.934-1.653-5.784-6.182-4.131-10.116
		l52.732-125.5c1.654-3.935,6.181-5.786,10.117-4.13c3.934,1.653,5.784,6.182,4.131,10.116l-52.732,125.5
		C384.314,280.497,381.447,282.275,378.429,282.275z"/>
</g>
<g>
	<path style="fill:#9E6B57;" d="M232.982,135.292V128.2c0.004,0.003,0.008,0.005,0.012,0.008
		c-11.084-7.474-18.375-20.145-18.375-34.519c0-0.309,0.017-0.613,0.024-0.92c-43.816,4.726-87.519,16.69-125.802,34.638
		c1.145,2.161,1.8,4.623,1.8,7.239c0,0.218-0.024,0.43-0.033,0.646H232.982z"/>
	<path style="fill:#9E6B57;" d="M422.752,128.252c-39.204-18.621-84.03-30.955-129.073-35.64c0.009,0.359,0.027,0.715,0.027,1.076
		c0,14.37-7.286,27.038-18.365,34.513c0,0,0.001-0.001,0.002-0.001v7.092h146.049c-0.009-0.216-0.033-0.428-0.033-0.646
		C421.36,132.363,421.866,130.203,422.752,128.252z"/>
</g>
<g>
	<path style="fill:#875848;" d="M220.522,115.028H118.654c-10.223,3.735-20.19,7.867-29.813,12.379
		c1.145,2.161,1.799,4.623,1.799,7.239c0,0.218-0.024,0.43-0.033,0.647h142.375v-7.092c0.004,0.003,0.008,0.005,0.012,0.008
		C227.929,124.791,223.669,120.281,220.522,115.028z"/>
	<path style="fill:#875848;" d="M391.095,115.028h-103.29c-3.145,5.25-7.401,9.758-12.463,13.173c0,0,0.001-0.001,0.002-0.001v7.092
		h146.049c-0.009-0.216-0.033-0.428-0.033-0.647c0-2.282,0.506-4.442,1.392-6.393C412.551,123.407,401.962,118.998,391.095,115.028z
		"/>
</g>
<path style="fill:#AD7B64;" d="M254.163,135.325c-8.608,0-16.605-2.627-23.241-7.126v261.907h46.482V128.199
	C270.768,132.698,262.771,135.325,254.163,135.325z"/>
<path style="fill:#9E6B57;" d="M230.922,128.199v261.907h21.179V135.268C244.28,134.885,237.024,132.337,230.922,128.199z"/>
<path style="fill:#FF5050;" d="M461.062,331.809h-48.414c-28.016,0-50.938-22.922-50.938-50.938l0,0
	c0-5.565,4.512-10.077,10.077-10.077h130.137c5.565,0,10.077,4.512,10.077,10.077l0,0C512,308.887,489.078,331.809,461.062,331.809z
	"/>
<path style="fill:#E4EAF8;" d="M436.855,157.866c-12.805,0-23.222-10.417-23.222-23.221c0-12.805,10.417-23.222,23.222-23.222
	s23.222,10.417,23.222,23.222C460.076,147.449,449.659,157.866,436.855,157.866z M436.855,126.877c-4.283,0-7.768,3.485-7.768,7.768
	s3.485,7.767,7.768,7.767c4.283,0,7.768-3.484,7.768-7.767C444.623,130.362,441.138,126.877,436.855,126.877z"/>
<path style="fill:#AD7B64;" d="M254.163,52.084c5.336,0,10.432,1.015,15.121,2.846V34.834c0-6.485-5.257-11.742-11.742-11.742
	h-6.757c-6.485,0-11.742,5.257-11.742,11.742V54.93C243.73,53.099,248.827,52.084,254.163,52.084z"/>
<path style="fill:#9E6B57;" d="M254.163,34.834c0-5.01,3.143-9.275,7.56-10.962c-1.301-0.497-2.707-0.781-4.182-0.781h-6.756
	c-6.485,0-11.742,5.257-11.742,11.742v20.096c4.688-1.83,9.785-2.846,15.121-2.846L254.163,34.834L254.163,34.834z"/>
<path style="fill:#E4EAF8;" d="M254.163,51.054c-23.509,0-42.634,19.125-42.634,42.633s19.126,42.634,42.634,42.634
	s42.634-19.126,42.634-42.634S277.672,51.054,254.163,51.054z"/>
<g>
	<path style="fill:#D8DCE5;" d="M232.134,93.687c0-19.956,13.786-36.747,32.332-41.368c-3.301-0.822-6.75-1.266-10.302-1.266
		c-23.509,0-42.634,19.125-42.634,42.633s19.126,42.634,42.634,42.634c3.552,0,7.001-0.443,10.302-1.266
		C245.919,130.435,232.134,113.644,232.134,93.687z"/>
	<circle style="fill:#D8DCE5;" cx="254.16" cy="93.691" r="15.12"/>
</g>
<g>
	<path style="fill:#C3C8D1;" d="M259.647,93.688c0-4.365,1.86-8.286,4.818-11.046c-2.701-2.521-6.316-4.075-10.302-4.075
		c-8.351,0-15.121,6.77-15.121,15.121s6.77,15.121,15.121,15.121c3.986,0,7.601-1.554,10.302-4.075
		C261.507,101.973,259.647,98.052,259.647,93.688z"/>
	<path style="fill:#C3C8D1;" d="M133.571,282.275c-3.018,0-5.885-1.779-7.127-4.736l-52.732-125.5
		c-1.653-3.934,0.196-8.463,4.131-10.116c3.934-1.657,8.463,0.195,10.117,4.13l52.732,125.5c1.653,3.934-0.196,8.463-4.131,10.116
		C135.583,282.081,134.569,282.275,133.571,282.275z"/>
	<path style="fill:#C3C8D1;" d="M16.72,282.275c-0.998,0-2.012-0.194-2.99-0.606c-3.934-1.653-5.784-6.182-4.131-10.116
		l52.732-125.5c1.654-3.935,6.181-5.786,10.117-4.13c3.934,1.653,5.784,6.182,4.131,10.116l-52.732,125.5
		C22.604,280.497,19.738,282.275,16.72,282.275z"/>
</g>
<path style="fill:#00C3FF;" d="M99.352,331.809H50.938C22.922,331.809,0,308.887,0,280.871l0,0c0-5.565,4.512-10.077,10.077-10.077
	h130.137c5.565,0,10.077,4.512,10.077,10.077l0,0C150.291,308.887,127.368,331.809,99.352,331.809z"/>
<path style="fill:#EE3E3E;" d="M383.113,280.871c0-5.565,4.512-10.077,10.077-10.077h-21.404c-5.565,0-10.077,4.512-10.077,10.077
	c0,28.016,22.922,50.938,50.938,50.938h21.404C406.035,331.809,383.113,308.887,383.113,280.871z"/>
<path style="fill:#06B0F2;" d="M21.404,280.871c0-5.565,4.512-10.077,10.077-10.077H10.077C4.512,270.794,0,275.305,0,280.871
	c0,28.016,22.922,50.938,50.939,50.938h21.404C44.326,331.809,21.404,308.887,21.404,280.871z"/>
<path style="fill:#E4EAF8;" d="M75.145,157.866c-12.805,0-23.222-10.417-23.222-23.221c0-12.805,10.417-23.222,23.222-23.222
	s23.222,10.417,23.222,23.222C98.367,147.449,87.95,157.866,75.145,157.866z M75.145,126.877c-4.283,0-7.768,3.485-7.768,7.768
	s3.485,7.767,7.768,7.767s7.768-3.484,7.768-7.767C82.914,130.362,79.429,126.877,75.145,126.877z"/>
<path style="fill:#AD7B64;" d="M290.008,388.871h-71.69c-28.142,0-51.167,23.025-51.167,51.167v10.122h174.024v-10.122
	C341.175,411.896,318.15,388.871,290.008,388.871z"/>
<g>
	<path style="fill:#9E6B57;" d="M238.923,388.871h-20.605c-28.142,0-51.167,23.025-51.167,51.167v10.122h20.605v-10.122
		C187.756,411.897,210.781,388.871,238.923,388.871z"/>
	<path style="fill:#9E6B57;" d="M345.672,449.887H162.654c-6.8,0-12.363,5.563-12.363,12.363v14.298
		c0,6.8,5.563,12.363,12.363,12.363h183.018c6.8,0,12.363-5.563,12.363-12.363V462.25
		C358.035,455.45,352.472,449.887,345.672,449.887z"/>
</g>
<path style="fill:#875848;" d="M345.672,469.399H162.654c-5.905,0-10.873-4.198-12.079-9.756c-0.183,0.842-0.284,1.713-0.284,2.607
	v14.298c0,6.8,5.563,12.363,12.363,12.363h183.018c6.8,0,12.363-5.563,12.363-12.363V462.25c0-0.894-0.102-1.765-0.284-2.607
	C356.545,465.2,351.577,469.399,345.672,469.399z"/>
<g>
</g>
<g>
</g>
<g>
</g>
<g>
</g>
<g>
</g>
<g>
</g>
<g>
</g>
<g>
</g>
<g>
</g>
<g>
</g>
<g>
</g>
<g>
</g>
<g>
</g>
<g>
</g>
<g>
</g>
</svg>
